<?xml version="1.0" standalone="no"?>
<!DOCTYPE svg PUBLIC "-//W3C//DTD SVG 20010904//EN"
 "http://www.w3.org/TR/2001/REC-SVG-20010904/DTD/svg10.dtd">
<svg version="1.0" xmlns="http://www.w3.org/2000/svg"
 width="142.000000pt" height="142.000000pt" viewBox="0 0 142.000000 142.000000"
 preserveAspectRatio="xMidYMid meet">
<metadata>
Created by potrace 1.14, written by Peter Selinger 2001-2017
</metadata>
<g transform="translate(0.000000,142.000000) scale(0.100000,-0.100000)"
fill="#000000" stroke="none">
<path d="M605 1353 c6 -5 40 -30 76 -55 88 -62 175 -159 210 -233 58 -121 28
-258 -79 -361 -46 -44 -102 -71 -122 -59 -14 9 -12 -7 4 -27 37 -49 139 -57
222 -17 132 63 164 301 62 468 -34 55 -117 139 -178 181 -53 36 -215 122 -195
103z"/>
<path d="M421 1111 c-90 -84 27 -228 128 -157 81 56 40 186 -59 186 -28 0 -46
-7 -69 -29z"/>
<path d="M656 924 c-72 -26 -150 -97 -217 -196 -42 -62 -43 -67 -3 -42 23 16
26 15 44 -1 11 -10 20 -30 20 -44 1 -34 32 -101 59 -125 31 -28 113 -53 165
-51 53 3 135 41 189 88 34 30 55 65 23 38 -34 -29 -142 -46 -195 -31 -91 24
-128 145 -77 251 31 66 60 96 113 114 l38 14 -60 0 c-33 0 -78 -7 -99 -15z"/>
<path d="M90 344 c0 -24 1 -25 21 -13 28 19 29 33 2 37 -19 3 -23 -1 -23 -24z"/>
<path d="M176 363 c-3 -4 -6 -55 -6 -115 0 -116 -3 -110 55 -110 47 0 54 2 73
22 14 15 19 38 21 89 3 89 -15 113 -86 117 -28 2 -53 0 -57 -3z m90 -44 c12
-19 7 -118 -6 -134 -13 -16 -39 -20 -41 -7 -1 10 -1 135 0 145 2 11 39 8 47
-4z"/>
<path d="M903 350 c1 -14 8 -20 24 -20 16 0 23 6 23 20 0 15 -7 20 -24 20 -19
0 -24 -5 -23 -20z"/>
<path d="M107 309 c-14 -8 -17 -25 -17 -90 0 -77 1 -80 22 -77 21 3 23 8 23
86 1 46 -2 85 -5 87 -3 2 -13 -1 -23 -6z"/>
<path d="M370 302 c-12 -10 -23 -34 -26 -57 -11 -81 34 -131 92 -103 17 7 30
23 32 36 4 28 -18 29 -41 2 -21 -25 -37 -18 -37 14 0 20 5 23 33 21 17 -1 37
0 44 2 14 5 6 63 -10 80 -20 20 -65 23 -87 5z m60 -42 c0 -13 -7 -18 -20 -17
-22 1 -26 17 -8 35 14 14 28 6 28 -18z"/>
<path d="M560 310 c-6 -4 -22 -5 -36 -2 -18 3 -24 0 -25 -14 -3 -102 -3 -154
1 -155 3 0 13 -2 23 -4 9 -2 17 2 18 8 0 7 2 37 4 67 4 73 3 70 20 70 16 0 19
-19 16 -97 -1 -33 2 -43 14 -43 8 0 18 0 23 0 4 0 9 30 12 67 4 52 9 68 20 68
12 0 16 -15 18 -67 3 -60 5 -68 22 -68 21 0 22 3 22 80 0 78 -1 80 -24 89 -16
6 -30 5 -45 -5 -13 -8 -23 -10 -23 -5 0 11 -45 20 -60 11z"/>
<path d="M805 310 c-3 -5 -19 -7 -35 -3 l-30 6 0 -132 0 -131 26 0 c20 0 25 5
24 23 -1 12 -2 35 -1 51 1 22 4 26 14 18 17 -14 54 -5 63 16 4 10 8 39 10 65
2 41 -1 53 -21 73 -26 26 -40 30 -50 14z m20 -86 c0 -37 -4 -49 -15 -49 -16 0
-27 63 -16 92 12 31 31 6 31 -43z"/>
<path d="M1012 309 c-30 -11 -45 -54 -38 -108 7 -50 28 -71 69 -65 36 4 57 21
57 45 0 25 -26 24 -42 0 -15 -25 -38 -16 -38 15 0 22 4 24 35 21 41 -5 55 8
48 45 -9 45 -46 64 -91 47z m48 -47 c0 -11 -7 -18 -20 -18 -13 0 -20 7 -20 18
0 11 7 18 20 18 13 0 20 -7 20 -18z"/>
<path d="M1191 311 c-7 -4 -23 -6 -37 -3 -26 5 -26 5 -26 -73 1 -89 1 -93 22
-98 21 -6 21 -6 24 73 1 36 5 47 24 55 12 5 22 17 22 27 0 21 -12 29 -29 19z"/>
<path d="M1262 307 c-23 -11 -32 -35 -32 -94 0 -56 28 -86 73 -79 28 4 57 28
57 47 0 19 -33 17 -50 -3 l-17 -22 -12 23 c-16 29 -8 36 37 36 41 0 51 20 33
67 -11 28 -54 41 -89 25z m51 -42 c7 -18 -6 -27 -27 -19 -17 7 -20 16 -9 27
11 12 31 8 36 -8z"/>
<path d="M903 228 c1 -66 4 -84 16 -89 27 -11 31 0 31 87 0 82 -1 84 -24 84
-23 0 -24 -2 -23 -82z"/>
<path d="M177 101 c-3 -11 1 -27 7 -36 11 -15 13 -15 25 -1 7 8 11 23 9 33 -5
25 -34 28 -41 4z m26 -6 c4 -8 2 -17 -3 -20 -6 -4 -10 3 -10 14 0 25 6 27 13
6z"/>
<path d="M417 108 c-2 -7 3 -18 12 -25 14 -11 14 -12 -3 -13 -15 0 -17 -3 -8
-12 8 -8 15 -8 27 2 14 12 14 15 -2 33 -10 11 -12 17 -5 13 6 -4 12 -2 12 3 0
15 -27 14 -33 -1z"/>
<path d="M829 118 c-13 -44 2 -81 23 -60 8 8 8 12 1 12 -13 0 -12 32 2 42 6 4
2 8 -7 8 -10 0 -18 -1 -19 -2z"/>
<path d="M875 90 c1 -34 15 -54 16 -24 0 10 3 13 6 7 8 -21 20 -15 17 10 -1
12 -3 25 -3 30 -1 4 -9 7 -19 7 -14 0 -18 -7 -17 -30z"/>
<path d="M939 118 c-6 -18 -8 -58 -4 -58 12 0 35 29 35 44 0 13 -27 24 -31 14z"/>
<path d="M1020 100 c0 -11 6 -20 13 -21 6 0 3 -4 -7 -8 -17 -6 -17 -8 -3 -14
8 -3 21 1 27 8 10 12 9 16 -4 21 -9 3 -16 10 -16 16 0 5 5 6 10 3 6 -3 10 -1
10 4 0 6 -7 11 -15 11 -8 0 -15 -9 -15 -20z"/>
<path d="M242 98 c-7 -7 -12 -23 -12 -35 0 -21 3 -22 20 -13 20 11 27 44 12
54 -5 3 -14 0 -20 -6z m15 -30 c-3 -8 -6 -5 -6 6 -1 11 2 17 5 13 3 -3 4 -12
1 -19z"/>
<path d="M289 102 c0 -4 -2 -15 -4 -24 -3 -18 21 -33 30 -18 4 6 1 10 -4 10
-6 0 -11 5 -11 11 0 5 5 7 10 4 6 -3 10 -2 10 3 0 11 -30 25 -31 14z"/>
<path d="M343 102 c-5 -4 -9 -15 -7 -25 4 -29 14 -33 15 -6 0 22 1 23 9 4 8
-19 9 -19 9 2 1 25 -10 35 -26 25z"/>
<path d="M474 97 c-3 -9 -3 -25 0 -34 6 -15 8 -15 24 0 15 16 15 18 0 34 -16
15 -18 15 -24 0z m13 -29 c-3 -8 -6 -5 -6 6 -1 11 2 17 5 13 3 -3 4 -12 1 -19z"/>
<path d="M583 103 c-16 -6 -17 -43 -2 -43 5 0 7 5 3 11 -3 6 0 15 7 20 16 9
10 18 -8 12z"/>
<path d="M614 96 c-8 -22 3 -49 17 -40 8 4 7 9 -2 15 -12 8 -12 10 0 18 9 6
10 11 2 15 -6 4 -14 0 -17 -8z"/>
<path d="M667 99 c-14 -8 -15 -14 -6 -31 13 -24 32 -11 27 20 -2 17 -7 19 -21
11z"/>
<path d="M1073 78 c1 -21 5 -38 10 -38 4 0 7 3 7 8 0 4 3 18 7 31 4 16 3 22
-5 18 -5 -4 -13 -1 -15 5 -3 7 -5 -4 -4 -24z"/>
<path d="M1121 101 c-7 -5 -9 -11 -4 -14 5 -3 15 -2 22 2 7 5 9 11 4 14 -5 3
-15 2 -22 -2z"/>
<path d="M1166 83 c9 -36 14 -42 14 -15 0 12 0 25 1 29 0 4 -5 9 -11 11 -7 3
-9 -5 -4 -25z"/>
<path d="M1201 91 c-8 -14 -7 -22 3 -30 15 -13 26 -5 26 20 0 26 -17 32 -29
10z"/>
<path d="M1251 87 c-5 -12 -6 -26 -3 -32 3 -5 9 1 13 15 4 16 7 19 8 8 1 -11
9 -18 22 -18 28 0 21 30 -9 41 -19 7 -24 5 -31 -14z m44 -7 c3 -5 1 -10 -4
-10 -6 0 -11 5 -11 10 0 6 2 10 4 10 3 0 8 -4 11 -10z"/>
<path d="M521 83 c0 -12 4 -25 10 -29 13 -7 29 13 29 36 -1 12 -4 11 -14 -3
-14 -18 -14 -18 -19 0 -4 15 -5 14 -6 -4z"/>
<path d="M1122 73 c-6 -2 -10 -9 -7 -13 7 -11 35 -2 35 11 0 10 -8 10 -28 2z"/>
</g>
</svg>
